M48
;DRILL file {KiCad no-vcs-found-7613~57~ubuntu16.04.1} date Sun Feb 19 17:16:59 2017
;FORMAT={-:-/ absolute / inch / decimal}
FMAT,2
INCH,TZ
T1C0.013
%
G90
G05
M72
T1
X4.1757Y-4.3343
X4.1929Y-4.1772
X4.2066Y-4.2998
X4.2135Y-4.212
X4.2503Y-4.4997
X4.2563Y-4.5323
X4.2756Y-4.1811
X4.2874Y-4.2953
X4.2874Y-4.3228
X4.2953Y-4.1299
X4.301Y-4.5904
X4.315Y-4.5561
X4.315Y-4.7047
X4.3228Y-4.6614
X4.3268Y-4.3543
X4.3289Y-4.2561
X4.376Y-4.7028
X4.4213Y-4.1339
X4.4213Y-4.4606
X4.437Y-4.2165
X4.4375Y-4.269
X4.4437Y-4.3791
X4.4449Y-4.4764
X4.4606Y-4.6811
X4.4606Y-4.7087
T0
M30
