G04 #@! TF.GenerationSoftware,KiCad,Pcbnew,no-vcs-found-7613~57~ubuntu16.04.1*
G04 #@! TF.CreationDate,2017-02-19T17:16:57-08:00*
G04 #@! TF.ProjectId,ESPKey,4553504B65792E6B696361645F706362,rev?*
G04 #@! TF.FileFunction,Copper,L1,Top,Signal*
G04 #@! TF.FilePolarity,Positive*
%FSLAX46Y46*%
G04 Gerber Fmt 4.6, Leading zero omitted, Abs format (unit mm)*
G04 Created by KiCad (PCBNEW no-vcs-found-7613~57~ubuntu16.04.1) date Sun Feb 19 17:16:57 2017*
%MOMM*%
%LPD*%
G01*
G04 APERTURE LIST*
%ADD10C,0.100000*%
%ADD11R,0.650000X1.060000*%
%ADD12R,0.600000X0.400000*%
%ADD13R,0.800100X0.800100*%
%ADD14R,0.797560X0.797560*%
%ADD15R,5.400000X3.000000*%
%ADD16R,1.000000X1.250000*%
%ADD17R,0.750000X0.800000*%
%ADD18R,1.250000X1.000000*%
%ADD19R,0.400000X0.600000*%
%ADD20R,4.200000X1.150000*%
%ADD21C,0.450000*%
%ADD22R,0.600000X0.500000*%
%ADD23C,0.685800*%
%ADD24C,0.812800*%
%ADD25C,0.508000*%
%ADD26C,0.254000*%
%ADD27C,0.152400*%
%ADD28C,0.381000*%
G04 APERTURE END LIST*
D10*
D11*
X105747000Y-114115000D03*
X106697000Y-114115000D03*
X107647000Y-114115000D03*
X107647000Y-111915000D03*
X105747000Y-111915000D03*
X106697000Y-111915000D03*
D12*
X109000000Y-119650000D03*
X109000000Y-118750000D03*
D13*
X111499240Y-105150000D03*
X111499240Y-107050000D03*
X113498220Y-106100000D03*
D14*
X104650700Y-105200000D03*
X106149300Y-105200000D03*
D15*
X117017800Y-118014500D03*
X117017800Y-114014500D03*
X117017800Y-102000000D03*
X117017800Y-106000000D03*
X117017800Y-110000000D03*
D16*
X112800000Y-114990000D03*
X110800000Y-114990000D03*
D17*
X104600000Y-114150000D03*
X104600000Y-112650000D03*
D18*
X110300000Y-119400000D03*
X110300000Y-117400000D03*
D17*
X111750000Y-117950000D03*
X111750000Y-119450000D03*
D13*
X111499240Y-111750000D03*
X111499240Y-113650000D03*
X113498220Y-112700000D03*
X111499240Y-108450000D03*
X111499240Y-110350000D03*
X113498220Y-109400000D03*
D12*
X106200000Y-107700000D03*
X106200000Y-106800000D03*
X108600000Y-107450000D03*
X108600000Y-106550000D03*
D19*
X109500000Y-115000000D03*
X108600000Y-115000000D03*
D12*
X109050000Y-115800000D03*
X109050000Y-116700000D03*
D19*
X110650000Y-112100000D03*
X109750000Y-112100000D03*
X110650000Y-111100000D03*
X109750000Y-111100000D03*
X109750000Y-110000000D03*
X110650000Y-110000000D03*
X110650000Y-108900000D03*
X109750000Y-108900000D03*
X110650000Y-107800000D03*
X109750000Y-107800000D03*
X109750000Y-106700000D03*
X110650000Y-106700000D03*
X106950000Y-106000000D03*
X107850000Y-106000000D03*
D12*
X110500000Y-105750000D03*
X110500000Y-104850000D03*
X109500000Y-104850000D03*
X109500000Y-105750000D03*
D19*
X106950000Y-105000000D03*
X107850000Y-105000000D03*
X106900000Y-110700000D03*
X106000000Y-110700000D03*
D20*
X106300000Y-116625000D03*
X106300000Y-118775000D03*
D21*
X106300000Y-119575000D03*
D10*
G36*
X104200000Y-119350000D02*
X108400000Y-119350000D01*
X107950000Y-119800000D01*
X104650000Y-119800000D01*
X104200000Y-119350000D01*
X104200000Y-119350000D01*
G37*
D21*
X106300000Y-115825000D03*
D10*
G36*
X104650000Y-115600000D02*
X107950000Y-115600000D01*
X108400000Y-116050000D01*
X104200000Y-116050000D01*
X104650000Y-115600000D01*
X104650000Y-115600000D01*
G37*
D22*
X107750000Y-108700000D03*
X106650000Y-108700000D03*
D19*
X106750000Y-109700000D03*
X107650000Y-109700000D03*
X107650000Y-110700000D03*
X108550000Y-110700000D03*
D23*
X111150000Y-119450000D03*
X109600000Y-119500000D03*
X108900000Y-109100000D03*
X112300000Y-113300000D03*
X112900000Y-113700000D03*
X108900000Y-109800000D03*
X112700000Y-107100000D03*
X109600000Y-115725000D03*
X106846435Y-109215749D03*
X113300000Y-119600000D03*
X113300000Y-118900000D03*
X109900000Y-110600000D03*
X112870040Y-111229960D03*
X109954717Y-108104707D03*
X112712346Y-108432265D03*
X109100000Y-104900000D03*
X106500000Y-106100000D03*
X112300000Y-105000000D03*
X107957657Y-114292343D03*
X106062955Y-110090087D03*
X107022097Y-106983708D03*
X108600000Y-106200000D03*
X108109389Y-115120876D03*
X109245997Y-116596963D03*
X109799964Y-118400000D03*
D24*
X109400000Y-113026199D02*
X108300000Y-113026199D01*
X108900000Y-112426199D02*
X108900000Y-112526199D01*
X108900000Y-112526199D02*
X109400000Y-113026199D01*
X108900000Y-108600000D02*
X108900000Y-112426199D01*
X108900000Y-112426199D02*
X108300000Y-113026199D01*
D25*
X109000000Y-119650000D02*
X109450000Y-119650000D01*
X109000000Y-119650000D02*
X110950000Y-119650000D01*
X109450000Y-119650000D02*
X109600000Y-119500000D01*
X110950000Y-119650000D02*
X111150000Y-119450000D01*
D24*
X111900000Y-119450000D02*
X110375000Y-119450000D01*
X112900000Y-113700000D02*
X112226199Y-113026199D01*
X112226199Y-113026199D02*
X111876199Y-113026199D01*
D26*
X110650000Y-110000000D02*
X110650000Y-109800000D01*
X110650000Y-109800000D02*
X109750000Y-108900000D01*
X109750000Y-108900000D02*
X109100000Y-108900000D01*
D25*
X109600000Y-119500000D02*
X109942899Y-119157101D01*
X109942899Y-119157101D02*
X110517899Y-119157101D01*
X109600000Y-119500000D02*
X110200000Y-119500000D01*
X110200000Y-119500000D02*
X110300000Y-119400000D01*
X112900000Y-114700000D02*
X112900000Y-113900000D01*
X111150000Y-119450000D02*
X110350000Y-119450000D01*
X110350000Y-119450000D02*
X110300000Y-119400000D01*
D26*
X109200000Y-105750000D02*
X109150000Y-105750000D01*
X109150000Y-105750000D02*
X108900000Y-105500000D01*
X108900000Y-105500000D02*
X107900000Y-105500000D01*
X109600000Y-105750000D02*
X109200000Y-105750000D01*
X109222301Y-106127699D02*
X109222301Y-105772301D01*
X109222301Y-105772301D02*
X109200000Y-105750000D01*
X107900000Y-105500000D02*
X107900000Y-105050000D01*
X107900000Y-105050000D02*
X107850000Y-105000000D01*
X107900000Y-105500000D02*
X107900000Y-105950000D01*
X107900000Y-105950000D02*
X107850000Y-106000000D01*
X109179401Y-107400000D02*
X109222301Y-107357100D01*
X109222301Y-107357100D02*
X109222301Y-106127699D01*
D24*
X113200000Y-114600000D02*
X116432300Y-114600000D01*
X116432300Y-114600000D02*
X117017800Y-114014500D01*
X113200000Y-114600000D02*
X112573801Y-114600000D01*
X112573801Y-114600000D02*
X111873801Y-113900000D01*
X111000000Y-113026199D02*
X111000000Y-113100000D01*
D26*
X108550000Y-110700000D02*
X108900000Y-110700000D01*
D24*
X108900000Y-110700000D02*
X108900000Y-109800000D01*
D26*
X109123521Y-107929401D02*
X108900000Y-107929401D01*
X109179401Y-107400000D02*
X109179401Y-108320599D01*
X109179401Y-107873521D02*
X109123521Y-107929401D01*
X109179401Y-107400000D02*
X109179401Y-107873521D01*
X109179401Y-108320599D02*
X108900000Y-108600000D01*
D24*
X108900000Y-108600000D02*
X108900000Y-108208801D01*
X113200008Y-113900000D02*
X111873801Y-113900000D01*
X111873801Y-113900000D02*
X111000000Y-113026199D01*
X111000000Y-113026199D02*
X109400000Y-113026199D01*
X111876199Y-113026199D02*
X111000000Y-113026199D01*
X108300000Y-113026199D02*
X105924959Y-113026199D01*
X112500000Y-113650000D02*
X111876199Y-113026199D01*
X105924959Y-113026199D02*
X105731790Y-113219368D01*
X105731790Y-113219368D02*
X105731790Y-114115000D01*
D26*
X109100000Y-108900000D02*
X108900000Y-109100000D01*
D24*
X113200008Y-113900000D02*
X116903300Y-113900000D01*
X116903300Y-113900000D02*
X117017800Y-114014500D01*
D26*
X111699240Y-107050000D02*
X112650000Y-107050000D01*
X112650000Y-107050000D02*
X112700000Y-107100000D01*
X110850000Y-106700000D02*
X111349240Y-106700000D01*
X111349240Y-106700000D02*
X111699240Y-107050000D01*
X110650000Y-110000000D02*
X111149240Y-110000000D01*
X111149240Y-110000000D02*
X111499240Y-110350000D01*
D24*
X111750000Y-117950000D02*
X110850000Y-117950000D01*
X110850000Y-117950000D02*
X110300000Y-117400000D01*
X113300000Y-118900000D02*
X112350000Y-117950000D01*
X112350000Y-117950000D02*
X111750000Y-117950000D01*
X113300000Y-118900000D02*
X113300000Y-119600000D01*
D26*
X109500000Y-115000000D02*
X109500000Y-115625000D01*
X109525000Y-115650000D02*
X109600000Y-115725000D01*
X109500000Y-115625000D02*
X109525000Y-115650000D01*
X109050000Y-115800000D02*
X109050000Y-115790067D01*
D25*
X110000000Y-117400000D02*
X110000000Y-116125000D01*
D26*
X109050000Y-115790067D02*
X109115067Y-115725000D01*
D25*
X109942899Y-116067899D02*
X109600000Y-115725000D01*
X110000000Y-116125000D02*
X109942899Y-116067899D01*
D26*
X109115067Y-115725000D02*
X109600000Y-115725000D01*
D24*
X109367181Y-117498298D02*
X108965479Y-117900000D01*
X110000000Y-117400000D02*
X109901702Y-117498298D01*
X108965479Y-117900000D02*
X108400000Y-117900000D01*
X109901702Y-117498298D02*
X109367181Y-117498298D01*
X108900000Y-117900000D02*
X108400000Y-117900000D01*
X108400000Y-117900000D02*
X106600000Y-117900000D01*
X106600000Y-117900000D02*
X106300000Y-118200000D01*
D26*
X106225000Y-108594314D02*
X106503536Y-108872850D01*
X106225000Y-108500000D02*
X106225000Y-108594314D01*
X106784933Y-109700000D02*
X106846435Y-109638498D01*
X106503536Y-108872850D02*
X106846435Y-109215749D01*
X106846435Y-109638498D02*
X106846435Y-109215749D01*
X106750000Y-109700000D02*
X106784933Y-109700000D01*
X106225000Y-108500000D02*
X106425000Y-108700000D01*
X106425000Y-108700000D02*
X106650000Y-108700000D01*
X108600000Y-107450000D02*
X108350000Y-107700000D01*
X108350000Y-107700000D02*
X106200000Y-107700000D01*
X106200000Y-108500000D02*
X105600000Y-107900000D01*
X105600000Y-107900000D02*
X105600000Y-105900000D01*
X105600000Y-105900000D02*
X104900000Y-105200000D01*
X104900000Y-105200000D02*
X104650700Y-105200000D01*
X106200000Y-107700000D02*
X106200000Y-108500000D01*
X106225000Y-108500000D02*
X106200000Y-108500000D01*
X104650700Y-105200000D02*
X104652922Y-105200000D01*
X104802922Y-105300000D02*
X104650700Y-105300000D01*
X109750000Y-111100000D02*
X109750000Y-110750000D01*
X109750000Y-110750000D02*
X109900000Y-110600000D01*
X109750000Y-110000000D02*
X109750000Y-110450000D01*
X109750000Y-110450000D02*
X109900000Y-110600000D01*
X109750000Y-110000000D02*
X109750000Y-111100000D01*
X112527141Y-111572859D02*
X112870040Y-111229960D01*
X112350000Y-111750000D02*
X112527141Y-111572859D01*
X111499240Y-111750000D02*
X112350000Y-111750000D01*
X111499240Y-111750000D02*
X111000000Y-111750000D01*
X111000000Y-111750000D02*
X110650000Y-112100000D01*
X109750000Y-107899990D02*
X109954717Y-108104707D01*
X109750000Y-106700000D02*
X109750000Y-107800000D01*
X111499240Y-108450000D02*
X111100000Y-108450000D01*
X111100000Y-108450000D02*
X110650000Y-108900000D01*
X112712346Y-108432265D02*
X111516975Y-108432265D01*
X111516975Y-108432265D02*
X111499240Y-108450000D01*
X109400000Y-104850000D02*
X110500000Y-104850000D01*
X109100000Y-104900000D02*
X109550000Y-104900000D01*
X109550000Y-104900000D02*
X109600000Y-104850000D01*
X109350000Y-104900000D02*
X109100000Y-104900000D01*
X106600000Y-106000000D02*
X106500000Y-106100000D01*
X106950000Y-106000000D02*
X106600000Y-106000000D01*
X111599240Y-105150000D02*
X112150000Y-105150000D01*
X112150000Y-105150000D02*
X112300000Y-105000000D01*
D24*
X110800000Y-114970000D02*
X110800000Y-114794158D01*
X110800000Y-114794158D02*
X110120842Y-114115000D01*
X110120842Y-114115000D02*
X107662210Y-114115000D01*
X110800000Y-114970000D02*
X110800000Y-114910000D01*
X110800000Y-114910000D02*
X112290000Y-116400000D01*
X112290000Y-116400000D02*
X115403300Y-116400000D01*
X115403300Y-116400000D02*
X117017800Y-118014500D01*
X110775000Y-114925000D02*
X110775000Y-114850000D01*
D27*
X107780314Y-114115000D02*
X107957657Y-114292343D01*
X107647000Y-114115000D02*
X107780314Y-114115000D01*
D26*
X106055913Y-110090087D02*
X106062955Y-110090087D01*
X106000000Y-110146000D02*
X106055913Y-110090087D01*
X106000000Y-110700000D02*
X106000000Y-110146000D01*
X105950000Y-110700000D02*
X106000000Y-110700000D01*
D28*
X104600000Y-114150000D02*
X104600000Y-114931000D01*
X104600000Y-114931000D02*
X105619000Y-115950000D01*
X105619000Y-115950000D02*
X106600000Y-115950000D01*
D24*
X106697000Y-114115000D02*
X106697000Y-115853000D01*
X106697000Y-115853000D02*
X106600000Y-115950000D01*
D28*
X104600000Y-112650000D02*
X105012000Y-112650000D01*
X105012000Y-112650000D02*
X105747000Y-111915000D01*
D26*
X113500000Y-110079451D02*
X113030549Y-110079451D01*
X113030549Y-110079451D02*
X112072342Y-111037658D01*
X110762342Y-111037658D02*
X110700000Y-111100000D01*
X112072342Y-111037658D02*
X110762342Y-111037658D01*
X116938349Y-110079451D02*
X113500000Y-110079451D01*
X113498220Y-112700000D02*
X113498220Y-112045950D01*
X113498220Y-112045950D02*
X113500000Y-112044170D01*
X113500000Y-112044170D02*
X113500000Y-110079451D01*
X117017800Y-110000000D02*
X116938349Y-110079451D01*
X110650000Y-107800000D02*
X110846218Y-107800000D01*
X110846218Y-107800000D02*
X110916767Y-107729451D01*
X110916767Y-107729451D02*
X114088349Y-107729451D01*
X113598220Y-108219580D02*
X114100000Y-107717800D01*
X114100000Y-107717800D02*
X115817800Y-106000000D01*
X114088349Y-107729451D02*
X114100000Y-107717800D01*
X113598220Y-108745950D02*
X113598220Y-109400000D01*
X113598220Y-108298220D02*
X113598220Y-108745950D01*
X113598220Y-109500000D02*
X113598220Y-108219580D01*
X115817800Y-106000000D02*
X117017800Y-106000000D01*
X113598220Y-104801780D02*
X112570000Y-105830000D01*
X112570000Y-105830000D02*
X110680000Y-105830000D01*
X110680000Y-105830000D02*
X110600000Y-105750000D01*
X110600000Y-105750000D02*
X110500000Y-105750000D01*
X113598220Y-106300000D02*
X113598220Y-104801780D01*
X113598220Y-104801780D02*
X116400000Y-102000000D01*
X116400000Y-102000000D02*
X117017800Y-102000000D01*
X106850000Y-110700000D02*
X106850000Y-111762000D01*
X106850000Y-111762000D02*
X106697000Y-111915000D01*
X106859435Y-111752565D02*
X106697000Y-111915000D01*
X106200000Y-106800000D02*
X106838389Y-106800000D01*
X106838389Y-106800000D02*
X107022097Y-106983708D01*
X107005805Y-107000000D02*
X107022097Y-106983708D01*
X108600000Y-106200000D02*
X108600000Y-106550000D01*
X108700000Y-106345314D02*
X108700000Y-106300000D01*
X108700000Y-106300000D02*
X108600000Y-106200000D01*
X108109389Y-115120876D02*
X108479124Y-115120876D01*
X108479124Y-115120876D02*
X108600000Y-115000000D01*
X109050000Y-116700000D02*
X109153037Y-116596963D01*
X109153037Y-116596963D02*
X109245997Y-116596963D01*
X109000000Y-118700000D02*
X109450000Y-118700000D01*
X109450000Y-118700000D02*
X109750000Y-118400000D01*
X109750000Y-118400000D02*
X109799964Y-118400000D01*
X106149300Y-105200000D02*
X106750000Y-105200000D01*
X106750000Y-105200000D02*
X106950000Y-105000000D01*
X106149300Y-105200000D02*
X106149300Y-105299300D01*
X106149300Y-105300000D02*
X106150000Y-105300000D01*
D25*
X107647000Y-111915000D02*
X107647000Y-111000000D01*
X107647000Y-111000000D02*
X107647000Y-110000000D01*
X107650000Y-110700000D02*
X107650000Y-110997000D01*
X107650000Y-110997000D02*
X107647000Y-111000000D01*
X107647000Y-110000000D02*
X107647000Y-108803000D01*
X107650000Y-109700000D02*
X107650000Y-109997000D01*
X107650000Y-109997000D02*
X107647000Y-110000000D01*
X107647000Y-108803000D02*
X107750000Y-108700000D01*
X107650000Y-111912000D02*
X107647000Y-111915000D01*
D26*
G36*
X112640361Y-113557859D02*
X112850405Y-113698207D01*
X113073222Y-113742528D01*
X112927000Y-113888750D01*
X112927000Y-114863000D01*
X112947000Y-114863000D01*
X112947000Y-115117000D01*
X112927000Y-115117000D01*
X112927000Y-115137000D01*
X112673000Y-115137000D01*
X112673000Y-115117000D01*
X112653000Y-115117000D01*
X112653000Y-114863000D01*
X112673000Y-114863000D01*
X112673000Y-113888750D01*
X112514250Y-113730000D01*
X112173691Y-113730000D01*
X112060223Y-113777000D01*
X111626240Y-113777000D01*
X111626240Y-113797000D01*
X111592898Y-113797000D01*
X111547765Y-113766843D01*
X111352240Y-113727951D01*
X111352240Y-113523000D01*
X111372240Y-113523000D01*
X111372240Y-113503000D01*
X111626240Y-113503000D01*
X111626240Y-113523000D01*
X112375540Y-113523000D01*
X112520325Y-113378215D01*
X112640361Y-113557859D01*
X112640361Y-113557859D01*
G37*
X112640361Y-113557859D02*
X112850405Y-113698207D01*
X113073222Y-113742528D01*
X112927000Y-113888750D01*
X112927000Y-114863000D01*
X112947000Y-114863000D01*
X112947000Y-115117000D01*
X112927000Y-115117000D01*
X112927000Y-115137000D01*
X112673000Y-115137000D01*
X112673000Y-115117000D01*
X112653000Y-115117000D01*
X112653000Y-114863000D01*
X112673000Y-114863000D01*
X112673000Y-113888750D01*
X112514250Y-113730000D01*
X112173691Y-113730000D01*
X112060223Y-113777000D01*
X111626240Y-113777000D01*
X111626240Y-113797000D01*
X111592898Y-113797000D01*
X111547765Y-113766843D01*
X111352240Y-113727951D01*
X111352240Y-113523000D01*
X111372240Y-113523000D01*
X111372240Y-113503000D01*
X111626240Y-113503000D01*
X111626240Y-113523000D01*
X112375540Y-113523000D01*
X112520325Y-113378215D01*
X112640361Y-113557859D01*
G36*
X117144800Y-113887500D02*
X117164800Y-113887500D01*
X117164800Y-114141500D01*
X117144800Y-114141500D01*
X117144800Y-114161500D01*
X116890800Y-114161500D01*
X116890800Y-114141500D01*
X116870800Y-114141500D01*
X116870800Y-113887500D01*
X116890800Y-113887500D01*
X116890800Y-113867500D01*
X117144800Y-113867500D01*
X117144800Y-113887500D01*
X117144800Y-113887500D01*
G37*
X117144800Y-113887500D02*
X117164800Y-113887500D01*
X117164800Y-114141500D01*
X117144800Y-114141500D01*
X117144800Y-114161500D01*
X116890800Y-114161500D01*
X116890800Y-114141500D01*
X116870800Y-114141500D01*
X116870800Y-113887500D01*
X116890800Y-113887500D01*
X116890800Y-113867500D01*
X117144800Y-113867500D01*
X117144800Y-113887500D01*
G36*
X108808750Y-111635000D02*
X108876309Y-111635000D01*
X108942358Y-111607641D01*
X108915000Y-111673690D01*
X108915000Y-111814250D01*
X109073750Y-111973000D01*
X109264585Y-111973000D01*
X109302235Y-111998157D01*
X109550000Y-112047440D01*
X109802560Y-112047440D01*
X109802560Y-112400000D01*
X109850000Y-112638500D01*
X109850000Y-112876250D01*
X110008750Y-113035000D01*
X110076309Y-113035000D01*
X110188084Y-112988701D01*
X110202235Y-112998157D01*
X110450000Y-113047440D01*
X110495754Y-113047440D01*
X110464190Y-113123641D01*
X110464190Y-113141896D01*
X110120842Y-113073600D01*
X108349605Y-113073600D01*
X108261905Y-113015000D01*
X108429809Y-112902809D01*
X108570157Y-112692765D01*
X108619440Y-112445000D01*
X108619440Y-112385750D01*
X108915000Y-112385750D01*
X108915000Y-112526310D01*
X109011673Y-112759699D01*
X109190302Y-112938327D01*
X109423691Y-113035000D01*
X109491250Y-113035000D01*
X109650000Y-112876250D01*
X109650000Y-112227000D01*
X109073750Y-112227000D01*
X108915000Y-112385750D01*
X108619440Y-112385750D01*
X108619440Y-111635000D01*
X108677002Y-111635000D01*
X108677002Y-111503252D01*
X108808750Y-111635000D01*
X108808750Y-111635000D01*
G37*
X108808750Y-111635000D02*
X108876309Y-111635000D01*
X108942358Y-111607641D01*
X108915000Y-111673690D01*
X108915000Y-111814250D01*
X109073750Y-111973000D01*
X109264585Y-111973000D01*
X109302235Y-111998157D01*
X109550000Y-112047440D01*
X109802560Y-112047440D01*
X109802560Y-112400000D01*
X109850000Y-112638500D01*
X109850000Y-112876250D01*
X110008750Y-113035000D01*
X110076309Y-113035000D01*
X110188084Y-112988701D01*
X110202235Y-112998157D01*
X110450000Y-113047440D01*
X110495754Y-113047440D01*
X110464190Y-113123641D01*
X110464190Y-113141896D01*
X110120842Y-113073600D01*
X108349605Y-113073600D01*
X108261905Y-113015000D01*
X108429809Y-112902809D01*
X108570157Y-112692765D01*
X108619440Y-112445000D01*
X108619440Y-112385750D01*
X108915000Y-112385750D01*
X108915000Y-112526310D01*
X109011673Y-112759699D01*
X109190302Y-112938327D01*
X109423691Y-113035000D01*
X109491250Y-113035000D01*
X109650000Y-112876250D01*
X109650000Y-112227000D01*
X109073750Y-112227000D01*
X108915000Y-112385750D01*
X108619440Y-112385750D01*
X108619440Y-111635000D01*
X108677002Y-111635000D01*
X108677002Y-111503252D01*
X108808750Y-111635000D01*
G36*
X108951843Y-108347765D02*
X108961298Y-108361916D01*
X108915000Y-108473690D01*
X108915000Y-108614250D01*
X109073750Y-108773000D01*
X109240090Y-108773000D01*
X109400058Y-108933247D01*
X109625840Y-109027000D01*
X109073750Y-109027000D01*
X108915000Y-109185750D01*
X108915000Y-109326310D01*
X108961298Y-109438084D01*
X108951843Y-109452235D01*
X108902560Y-109700000D01*
X108902560Y-109775874D01*
X108876309Y-109765000D01*
X108808750Y-109765000D01*
X108650000Y-109923750D01*
X108650000Y-110573000D01*
X108697000Y-110573000D01*
X108697000Y-110827000D01*
X108650000Y-110827000D01*
X108650000Y-110847000D01*
X108539000Y-110847000D01*
X108539000Y-110700000D01*
X108536000Y-110684918D01*
X108536000Y-110012082D01*
X108539000Y-109997000D01*
X108539000Y-109700000D01*
X108536000Y-109684918D01*
X108536000Y-109365619D01*
X108648157Y-109197765D01*
X108697440Y-108950000D01*
X108697440Y-108450000D01*
X108682813Y-108376462D01*
X108801077Y-108297440D01*
X108900000Y-108297440D01*
X108940241Y-108289436D01*
X108951843Y-108347765D01*
X108951843Y-108347765D01*
G37*
X108951843Y-108347765D02*
X108961298Y-108361916D01*
X108915000Y-108473690D01*
X108915000Y-108614250D01*
X109073750Y-108773000D01*
X109240090Y-108773000D01*
X109400058Y-108933247D01*
X109625840Y-109027000D01*
X109073750Y-109027000D01*
X108915000Y-109185750D01*
X108915000Y-109326310D01*
X108961298Y-109438084D01*
X108951843Y-109452235D01*
X108902560Y-109700000D01*
X108902560Y-109775874D01*
X108876309Y-109765000D01*
X108808750Y-109765000D01*
X108650000Y-109923750D01*
X108650000Y-110573000D01*
X108697000Y-110573000D01*
X108697000Y-110827000D01*
X108650000Y-110827000D01*
X108650000Y-110847000D01*
X108539000Y-110847000D01*
X108539000Y-110700000D01*
X108536000Y-110684918D01*
X108536000Y-110012082D01*
X108539000Y-109997000D01*
X108539000Y-109700000D01*
X108536000Y-109684918D01*
X108536000Y-109365619D01*
X108648157Y-109197765D01*
X108697440Y-108950000D01*
X108697440Y-108450000D01*
X108682813Y-108376462D01*
X108801077Y-108297440D01*
X108900000Y-108297440D01*
X108940241Y-108289436D01*
X108951843Y-108347765D01*
M02*
