G04 #@! TF.GenerationSoftware,KiCad,Pcbnew,no-vcs-found-7613~57~ubuntu16.04.1*
G04 #@! TF.CreationDate,2017-02-19T17:16:57-08:00*
G04 #@! TF.ProjectId,ESPKey,4553504B65792E6B696361645F706362,rev?*
G04 #@! TF.FileFunction,Copper,L2,Bot,Signal*
G04 #@! TF.FilePolarity,Positive*
%FSLAX46Y46*%
G04 Gerber Fmt 4.6, Leading zero omitted, Abs format (unit mm)*
G04 Created by KiCad (PCBNEW no-vcs-found-7613~57~ubuntu16.04.1) date Sun Feb 19 17:16:57 2017*
%MOMM*%
%LPD*%
G01*
G04 APERTURE LIST*
%ADD10C,0.100000*%
%ADD11R,2.500000X1.100000*%
%ADD12O,2.500000X1.100000*%
%ADD13C,0.685800*%
%ADD14C,0.254000*%
%ADD15C,0.812800*%
%ADD16C,0.508000*%
G04 APERTURE END LIST*
D10*
D11*
X119700000Y-105100000D03*
D12*
X119700000Y-107100000D03*
X119700000Y-109100000D03*
X119700000Y-111100000D03*
X119700000Y-113100000D03*
X119700000Y-115100000D03*
X119700000Y-117100000D03*
X119700000Y-119100000D03*
X104300000Y-119100000D03*
X104400000Y-117100000D03*
X104300000Y-115100000D03*
X104300000Y-113100000D03*
X104300000Y-111100000D03*
X104300000Y-109100000D03*
X104300000Y-107100000D03*
X104300000Y-105100000D03*
D13*
X111150000Y-119450000D03*
X109600000Y-119500000D03*
X108900000Y-109100000D03*
X112300000Y-113300000D03*
X112900000Y-113700000D03*
X108900000Y-109800000D03*
X112700000Y-107100000D03*
X109600000Y-115725000D03*
X106846435Y-109215749D03*
X113300000Y-119600000D03*
X113300000Y-118900000D03*
X109900000Y-110600000D03*
X112870040Y-111229960D03*
X109954717Y-108104707D03*
X112712346Y-108432265D03*
X109100000Y-104900000D03*
X106500000Y-106100000D03*
X112300000Y-105000000D03*
X107957657Y-114292343D03*
X106062955Y-110090087D03*
X107022097Y-106983708D03*
X108600000Y-106200000D03*
X108109389Y-115120876D03*
X109245997Y-116596963D03*
X109799964Y-118400000D03*
D14*
X111150000Y-115650000D02*
X111150000Y-119450000D01*
X113100000Y-113700000D02*
X111150000Y-115650000D01*
D15*
X105400000Y-119500000D02*
X105000000Y-119100000D01*
X111100000Y-119500000D02*
X105400000Y-119500000D01*
X111150000Y-119450000D02*
X111100000Y-119500000D01*
D14*
X109900000Y-107100000D02*
X109100000Y-107900000D01*
X112700000Y-107100000D02*
X109900000Y-107100000D01*
X109100000Y-107900000D02*
X109100000Y-109315067D01*
X109100000Y-109315067D02*
X109100000Y-109800000D01*
D15*
X113500000Y-119100000D02*
X113300000Y-118900000D01*
X113300000Y-118900000D02*
X113300000Y-119600000D01*
X119000000Y-119100000D02*
X113500000Y-119100000D01*
D16*
X106846435Y-112121435D02*
X109600000Y-114875000D01*
X109600000Y-114875000D02*
X109600000Y-115240067D01*
X106846435Y-109215749D02*
X106846435Y-112121435D01*
X109600000Y-115240067D02*
X109600000Y-115725000D01*
D14*
X114000000Y-112100000D02*
X112860000Y-112100000D01*
X111702899Y-110942899D02*
X110242899Y-110942899D01*
X119000000Y-117100000D02*
X114000000Y-112100000D01*
X112860000Y-112100000D02*
X111702899Y-110942899D01*
X110242899Y-110942899D02*
X109900000Y-110600000D01*
X113354973Y-111229960D02*
X112870040Y-111229960D01*
X115129960Y-111229960D02*
X113354973Y-111229960D01*
X119000000Y-115100000D02*
X115129960Y-111229960D01*
X119000000Y-113100000D02*
X114954566Y-109054566D01*
X114954566Y-109054566D02*
X110904576Y-109054566D01*
X110904576Y-109054566D02*
X110297616Y-108447606D01*
X110297616Y-108447606D02*
X109954717Y-108104707D01*
X113197279Y-108432265D02*
X112712346Y-108432265D01*
X116332265Y-108432265D02*
X113197279Y-108432265D01*
X119000000Y-111100000D02*
X116332265Y-108432265D01*
X105829410Y-108670590D02*
X105829410Y-107100000D01*
X105829410Y-105849584D02*
X105829410Y-107100000D01*
X105829410Y-107100000D02*
X105829410Y-106756448D01*
X105000000Y-109100000D02*
X105400000Y-109100000D01*
X105400000Y-109100000D02*
X105829410Y-108670590D01*
X105829410Y-106670590D02*
X105829410Y-105849584D01*
X105829410Y-105849584D02*
X106778994Y-104900000D01*
X106778994Y-104900000D02*
X108615067Y-104900000D01*
X108615067Y-104900000D02*
X109100000Y-104900000D01*
X105000000Y-109100000D02*
X105179903Y-109100000D01*
X105000000Y-111100000D02*
X105000000Y-110272962D01*
X105766551Y-109506411D02*
X105768340Y-109506411D01*
X105000000Y-110272962D02*
X105766551Y-109506411D01*
X105768340Y-109506411D02*
X106235821Y-109038930D01*
X106235821Y-109038930D02*
X106235821Y-106364179D01*
X106235821Y-106364179D02*
X106500000Y-106100000D01*
X112300000Y-105000000D02*
X111722978Y-105577022D01*
X107022978Y-105577022D02*
X106842899Y-105757101D01*
X106842899Y-105757101D02*
X106500000Y-106100000D01*
X111722978Y-105577022D02*
X107022978Y-105577022D01*
X106062955Y-112397641D02*
X107614758Y-113949444D01*
X107614758Y-113949444D02*
X107957657Y-114292343D01*
X106062955Y-110090087D02*
X106062955Y-112397641D01*
X119000000Y-109100000D02*
X116300000Y-106400000D01*
X109700000Y-106400000D02*
X109116292Y-106983708D01*
X116300000Y-106400000D02*
X109700000Y-106400000D01*
X109116292Y-106983708D02*
X107507030Y-106983708D01*
X107507030Y-106983708D02*
X107022097Y-106983708D01*
X109291344Y-105993589D02*
X109084933Y-106200000D01*
X118106411Y-105993589D02*
X109291344Y-105993589D01*
X109084933Y-106200000D02*
X108600000Y-106200000D01*
X119000000Y-105100000D02*
X118106411Y-105993589D01*
X105000000Y-113100000D02*
X107020876Y-115120876D01*
X107624456Y-115120876D02*
X108109389Y-115120876D01*
X107020876Y-115120876D02*
X107624456Y-115120876D01*
X106496963Y-116596963D02*
X108761064Y-116596963D01*
X108761064Y-116596963D02*
X109245997Y-116596963D01*
X105000000Y-115100000D02*
X106496963Y-116596963D01*
X109315031Y-118400000D02*
X109799964Y-118400000D01*
X105000000Y-117100000D02*
X106300000Y-118400000D01*
X106300000Y-118400000D02*
X109315031Y-118400000D01*
X105300000Y-117400000D02*
X105000000Y-117100000D01*
G36*
X108976987Y-107909337D02*
X108976648Y-108298370D01*
X109125210Y-108657919D01*
X109400058Y-108933247D01*
X109759347Y-109082437D01*
X109854900Y-109082520D01*
X110365761Y-109593381D01*
X110612971Y-109758562D01*
X110904576Y-109816566D01*
X114638936Y-109816566D01*
X115330150Y-110507780D01*
X115129960Y-110467960D01*
X113491123Y-110467960D01*
X113424699Y-110401420D01*
X113065410Y-110252230D01*
X112676377Y-110251891D01*
X112316828Y-110400453D01*
X112277421Y-110439791D01*
X112241714Y-110404084D01*
X112098507Y-110308396D01*
X111994504Y-110238903D01*
X111702899Y-110180899D01*
X110784920Y-110180899D01*
X110729507Y-110046788D01*
X110454659Y-109771460D01*
X110095370Y-109622270D01*
X109706337Y-109621931D01*
X109346788Y-109770493D01*
X109071460Y-110045341D01*
X108922270Y-110404630D01*
X108921931Y-110793663D01*
X109070493Y-111153212D01*
X109345341Y-111428540D01*
X109704630Y-111577730D01*
X109847968Y-111577855D01*
X109848289Y-111578069D01*
X109951294Y-111646895D01*
X110242899Y-111704899D01*
X111387269Y-111704899D01*
X112321185Y-112638815D01*
X112568395Y-112803996D01*
X112860000Y-112862000D01*
X113684370Y-112862000D01*
X117802012Y-116979643D01*
X117778071Y-117100000D01*
X117868274Y-117553480D01*
X118125149Y-117937922D01*
X118305757Y-118058600D01*
X113879209Y-118058600D01*
X113698527Y-117937872D01*
X113300000Y-117858600D01*
X112901473Y-117937872D01*
X112563619Y-118163619D01*
X112337872Y-118501473D01*
X112258600Y-118900000D01*
X112258600Y-119315000D01*
X110146266Y-119315000D01*
X110353176Y-119229507D01*
X110628504Y-118954659D01*
X110777694Y-118595370D01*
X110778033Y-118206337D01*
X110629471Y-117846788D01*
X110354623Y-117571460D01*
X109995334Y-117422270D01*
X109803584Y-117422103D01*
X110074537Y-117151622D01*
X110223727Y-116792333D01*
X110223996Y-116483847D01*
X110428540Y-116279659D01*
X110577730Y-115920370D01*
X110578069Y-115531337D01*
X110489000Y-115315773D01*
X110489000Y-114875000D01*
X110421329Y-114534794D01*
X110228618Y-114246382D01*
X107735435Y-111753199D01*
X107735435Y-109624804D01*
X107824165Y-109411119D01*
X107824504Y-109022086D01*
X107675942Y-108662537D01*
X107401094Y-108387209D01*
X107041805Y-108238019D01*
X106997821Y-108237981D01*
X106997821Y-107961587D01*
X107215760Y-107961777D01*
X107575309Y-107813215D01*
X107642934Y-107745708D01*
X109044932Y-107745708D01*
X108976987Y-107909337D01*
X108976987Y-107909337D01*
G37*
X108976987Y-107909337D02*
X108976648Y-108298370D01*
X109125210Y-108657919D01*
X109400058Y-108933247D01*
X109759347Y-109082437D01*
X109854900Y-109082520D01*
X110365761Y-109593381D01*
X110612971Y-109758562D01*
X110904576Y-109816566D01*
X114638936Y-109816566D01*
X115330150Y-110507780D01*
X115129960Y-110467960D01*
X113491123Y-110467960D01*
X113424699Y-110401420D01*
X113065410Y-110252230D01*
X112676377Y-110251891D01*
X112316828Y-110400453D01*
X112277421Y-110439791D01*
X112241714Y-110404084D01*
X112098507Y-110308396D01*
X111994504Y-110238903D01*
X111702899Y-110180899D01*
X110784920Y-110180899D01*
X110729507Y-110046788D01*
X110454659Y-109771460D01*
X110095370Y-109622270D01*
X109706337Y-109621931D01*
X109346788Y-109770493D01*
X109071460Y-110045341D01*
X108922270Y-110404630D01*
X108921931Y-110793663D01*
X109070493Y-111153212D01*
X109345341Y-111428540D01*
X109704630Y-111577730D01*
X109847968Y-111577855D01*
X109848289Y-111578069D01*
X109951294Y-111646895D01*
X110242899Y-111704899D01*
X111387269Y-111704899D01*
X112321185Y-112638815D01*
X112568395Y-112803996D01*
X112860000Y-112862000D01*
X113684370Y-112862000D01*
X117802012Y-116979643D01*
X117778071Y-117100000D01*
X117868274Y-117553480D01*
X118125149Y-117937922D01*
X118305757Y-118058600D01*
X113879209Y-118058600D01*
X113698527Y-117937872D01*
X113300000Y-117858600D01*
X112901473Y-117937872D01*
X112563619Y-118163619D01*
X112337872Y-118501473D01*
X112258600Y-118900000D01*
X112258600Y-119315000D01*
X110146266Y-119315000D01*
X110353176Y-119229507D01*
X110628504Y-118954659D01*
X110777694Y-118595370D01*
X110778033Y-118206337D01*
X110629471Y-117846788D01*
X110354623Y-117571460D01*
X109995334Y-117422270D01*
X109803584Y-117422103D01*
X110074537Y-117151622D01*
X110223727Y-116792333D01*
X110223996Y-116483847D01*
X110428540Y-116279659D01*
X110577730Y-115920370D01*
X110578069Y-115531337D01*
X110489000Y-115315773D01*
X110489000Y-114875000D01*
X110421329Y-114534794D01*
X110228618Y-114246382D01*
X107735435Y-111753199D01*
X107735435Y-109624804D01*
X107824165Y-109411119D01*
X107824504Y-109022086D01*
X107675942Y-108662537D01*
X107401094Y-108387209D01*
X107041805Y-108238019D01*
X106997821Y-108237981D01*
X106997821Y-107961587D01*
X107215760Y-107961777D01*
X107575309Y-107813215D01*
X107642934Y-107745708D01*
X109044932Y-107745708D01*
X108976987Y-107909337D01*
M02*
